<?xml version="1.0" encoding="utf-8"?>
<svg xmlns="http://www.w3.org/2000/svg" xmlns:xlink="http://www.w3.org/1999/xlink" width="528" height="336" viewBox="0 0 2112 1344">
<defs>
  <clipPath id="clip670">
    <rect x="0" y="0" width="2112" height="1344"/>
  </clipPath>
</defs>
<path clip-path="url(#clip670)" d="M0 1344 L2112 1344 L2112 0 L0 0  Z" fill="#ffffff" fill-rule="evenodd" fill-opacity="1"/>
<defs>
  <clipPath id="clip671">
    <rect x="422" y="0" width="1479" height="1344"/>
  </clipPath>
</defs>
<path clip-path="url(#clip670)" d="M274.664 1173.47 L2064.76 1173.47 L2064.76 47.2441 L274.664 47.2441  Z" fill="#ffffff" fill-rule="evenodd" fill-opacity="1"/>
<defs>
  <clipPath id="clip672">
    <rect x="274" y="47" width="1791" height="1127"/>
  </clipPath>
</defs>
<polyline clip-path="url(#clip672)" style="stroke:#000000; stroke-linecap:round; stroke-linejoin:round; stroke-width:2; stroke-opacity:0.1; fill:none" points="536.423,1173.47 536.423,47.2441 "/>
<polyline clip-path="url(#clip672)" style="stroke:#000000; stroke-linecap:round; stroke-linejoin:round; stroke-width:2; stroke-opacity:0.1; fill:none" points="958.614,1173.47 958.614,47.2441 "/>
<polyline clip-path="url(#clip672)" style="stroke:#000000; stroke-linecap:round; stroke-linejoin:round; stroke-width:2; stroke-opacity:0.1; fill:none" points="1380.81,1173.47 1380.81,47.2441 "/>
<polyline clip-path="url(#clip672)" style="stroke:#000000; stroke-linecap:round; stroke-linejoin:round; stroke-width:2; stroke-opacity:0.1; fill:none" points="1803,1173.47 1803,47.2441 "/>
<polyline clip-path="url(#clip672)" style="stroke:#000000; stroke-linecap:round; stroke-linejoin:round; stroke-width:2; stroke-opacity:0.1; fill:none" points="274.664,1141.6 2064.76,1141.6 "/>
<polyline clip-path="url(#clip672)" style="stroke:#000000; stroke-linecap:round; stroke-linejoin:round; stroke-width:2; stroke-opacity:0.1; fill:none" points="274.664,916.483 2064.76,916.483 "/>
<polyline clip-path="url(#clip672)" style="stroke:#000000; stroke-linecap:round; stroke-linejoin:round; stroke-width:2; stroke-opacity:0.1; fill:none" points="274.664,691.371 2064.76,691.371 "/>
<polyline clip-path="url(#clip672)" style="stroke:#000000; stroke-linecap:round; stroke-linejoin:round; stroke-width:2; stroke-opacity:0.1; fill:none" points="274.664,466.258 2064.76,466.258 "/>
<polyline clip-path="url(#clip672)" style="stroke:#000000; stroke-linecap:round; stroke-linejoin:round; stroke-width:2; stroke-opacity:0.1; fill:none" points="274.664,241.145 2064.76,241.145 "/>
<polyline clip-path="url(#clip670)" style="stroke:#000000; stroke-linecap:round; stroke-linejoin:round; stroke-width:4; stroke-opacity:1; fill:none" points="274.664,1173.47 2064.76,1173.47 "/>
<polyline clip-path="url(#clip670)" style="stroke:#000000; stroke-linecap:round; stroke-linejoin:round; stroke-width:4; stroke-opacity:1; fill:none" points="536.423,1173.47 536.423,1154.57 "/>
<polyline clip-path="url(#clip670)" style="stroke:#000000; stroke-linecap:round; stroke-linejoin:round; stroke-width:4; stroke-opacity:1; fill:none" points="958.614,1173.47 958.614,1154.57 "/>
<polyline clip-path="url(#clip670)" style="stroke:#000000; stroke-linecap:round; stroke-linejoin:round; stroke-width:4; stroke-opacity:1; fill:none" points="1380.81,1173.47 1380.81,1154.57 "/>
<polyline clip-path="url(#clip670)" style="stroke:#000000; stroke-linecap:round; stroke-linejoin:round; stroke-width:4; stroke-opacity:1; fill:none" points="1803,1173.47 1803,1154.57 "/>
<path clip-path="url(#clip670)" d="M531.075 1229.63 L547.395 1229.63 L547.395 1233.57 L525.45 1233.57 L525.45 1229.63 Q528.113 1226.88 532.696 1222.25 Q537.302 1217.59 538.483 1216.25 Q540.728 1213.73 541.608 1211.99 Q542.511 1210.23 542.511 1208.54 Q542.511 1205.79 540.566 1204.05 Q538.645 1202.32 535.543 1202.32 Q533.344 1202.32 530.89 1203.08 Q528.46 1203.84 525.682 1205.4 L525.682 1200.67 Q528.506 1199.54 530.96 1198.96 Q533.413 1198.38 535.45 1198.38 Q540.821 1198.38 544.015 1201.07 Q547.21 1203.75 547.21 1208.24 Q547.21 1210.37 546.399 1212.29 Q545.612 1214.19 543.506 1216.78 Q542.927 1217.46 539.825 1220.67 Q536.724 1223.87 531.075 1229.63 Z" fill="#000000" fill-rule="nonzero" fill-opacity="1" /><path clip-path="url(#clip670)" d="M961.623 1203.08 L949.818 1221.53 L961.623 1221.53 L961.623 1203.08 M960.397 1199.01 L966.276 1199.01 L966.276 1221.53 L971.207 1221.53 L971.207 1225.42 L966.276 1225.42 L966.276 1233.57 L961.623 1233.57 L961.623 1225.42 L946.022 1225.42 L946.022 1220.9 L960.397 1199.01 Z" fill="#000000" fill-rule="nonzero" fill-opacity="1" /><path clip-path="url(#clip670)" d="M1381.21 1214.42 Q1378.06 1214.42 1376.21 1216.58 Q1374.38 1218.73 1374.38 1222.48 Q1374.38 1226.21 1376.21 1228.38 Q1378.06 1230.53 1381.21 1230.53 Q1384.36 1230.53 1386.19 1228.38 Q1388.04 1226.21 1388.04 1222.48 Q1388.04 1218.73 1386.19 1216.58 Q1384.36 1214.42 1381.21 1214.42 M1390.49 1199.77 L1390.49 1204.03 Q1388.73 1203.2 1386.93 1202.76 Q1385.15 1202.32 1383.39 1202.32 Q1378.76 1202.32 1376.3 1205.44 Q1373.87 1208.57 1373.53 1214.89 Q1374.89 1212.87 1376.95 1211.81 Q1379.01 1210.72 1381.49 1210.72 Q1386.7 1210.72 1389.71 1213.89 Q1392.74 1217.04 1392.74 1222.48 Q1392.74 1227.8 1389.59 1231.02 Q1386.44 1234.24 1381.21 1234.24 Q1375.22 1234.24 1372.04 1229.65 Q1368.87 1225.05 1368.87 1216.32 Q1368.87 1208.13 1372.76 1203.27 Q1376.65 1198.38 1383.2 1198.38 Q1384.96 1198.38 1386.74 1198.73 Q1388.55 1199.08 1390.49 1199.77 Z" fill="#000000" fill-rule="nonzero" fill-opacity="1" /><path clip-path="url(#clip670)" d="M1803 1217.15 Q1799.66 1217.15 1797.74 1218.94 Q1795.84 1220.72 1795.84 1223.84 Q1795.84 1226.97 1797.74 1228.75 Q1799.66 1230.53 1803 1230.53 Q1806.33 1230.53 1808.25 1228.75 Q1810.17 1226.95 1810.17 1223.84 Q1810.17 1220.72 1808.25 1218.94 Q1806.35 1217.15 1803 1217.15 M1798.32 1215.16 Q1795.31 1214.42 1793.62 1212.36 Q1791.96 1210.3 1791.96 1207.34 Q1791.96 1203.2 1794.9 1200.79 Q1797.86 1198.38 1803 1198.38 Q1808.16 1198.38 1811.1 1200.79 Q1814.04 1203.2 1814.04 1207.34 Q1814.04 1210.3 1812.35 1212.36 Q1810.68 1214.42 1807.7 1215.16 Q1811.08 1215.95 1812.95 1218.24 Q1814.85 1220.53 1814.85 1223.84 Q1814.85 1228.87 1811.77 1231.55 Q1808.71 1234.24 1803 1234.24 Q1797.28 1234.24 1794.2 1231.55 Q1791.15 1228.87 1791.15 1223.84 Q1791.15 1220.53 1793.04 1218.24 Q1794.94 1215.95 1798.32 1215.16 M1796.61 1207.78 Q1796.61 1210.47 1798.27 1211.97 Q1799.96 1213.47 1803 1213.47 Q1806.01 1213.47 1807.7 1211.97 Q1809.41 1210.47 1809.41 1207.78 Q1809.41 1205.09 1807.7 1203.59 Q1806.01 1202.09 1803 1202.09 Q1799.96 1202.09 1798.27 1203.59 Q1796.61 1205.09 1796.61 1207.78 Z" fill="#000000" fill-rule="nonzero" fill-opacity="1" /><path clip-path="url(#clip670)" d="M1109.2 1307.24 L1109.2 1294.47 L1098.7 1294.47 L1098.7 1289.19 L1115.57 1289.19 L1115.57 1309.59 Q1111.85 1312.23 1107.36 1313.6 Q1102.87 1314.94 1097.78 1314.94 Q1086.64 1314.94 1080.34 1308.44 Q1074.07 1301.92 1074.07 1290.3 Q1074.07 1278.65 1080.34 1272.16 Q1086.64 1265.64 1097.78 1265.64 Q1102.42 1265.64 1106.59 1266.78 Q1110.8 1267.93 1114.33 1270.16 L1114.33 1277 Q1110.76 1273.97 1106.75 1272.45 Q1102.74 1270.92 1098.32 1270.92 Q1089.6 1270.92 1085.21 1275.79 Q1080.84 1280.66 1080.84 1290.3 Q1080.84 1299.91 1085.21 1304.78 Q1089.6 1309.65 1098.32 1309.65 Q1101.72 1309.65 1104.4 1309.08 Q1107.07 1308.48 1109.2 1307.24 Z" fill="#000000" fill-rule="nonzero" fill-opacity="1" /><path clip-path="url(#clip670)" d="M1147.72 1283.84 Q1146.73 1283.27 1145.55 1283.01 Q1144.41 1282.73 1143.01 1282.73 Q1138.04 1282.73 1135.37 1285.97 Q1132.73 1289.19 1132.73 1295.24 L1132.73 1314.01 L1126.84 1314.01 L1126.84 1278.37 L1132.73 1278.37 L1132.73 1283.9 Q1134.57 1280.66 1137.53 1279.1 Q1140.49 1277.51 1144.72 1277.51 Q1145.33 1277.51 1146.06 1277.6 Q1146.79 1277.67 1147.68 1277.83 L1147.72 1283.84 Z" fill="#000000" fill-rule="nonzero" fill-opacity="1" /><path clip-path="url(#clip670)" d="M1170.06 1296.1 Q1162.96 1296.1 1160.23 1297.72 Q1157.49 1299.34 1157.49 1303.26 Q1157.49 1306.38 1159.52 1308.22 Q1161.59 1310.04 1165.13 1310.04 Q1170 1310.04 1172.92 1306.6 Q1175.88 1303.13 1175.88 1297.4 L1175.88 1296.1 L1170.06 1296.1 M1181.74 1293.68 L1181.74 1314.01 L1175.88 1314.01 L1175.88 1308.6 Q1173.88 1311.85 1170.89 1313.41 Q1167.9 1314.94 1163.57 1314.94 Q1158.09 1314.94 1154.85 1311.88 Q1151.63 1308.79 1151.63 1303.64 Q1151.63 1297.62 1155.64 1294.57 Q1159.68 1291.51 1167.67 1291.51 L1175.88 1291.51 L1175.88 1290.94 Q1175.88 1286.9 1173.21 1284.7 Q1170.57 1282.47 1165.76 1282.47 Q1162.71 1282.47 1159.81 1283.2 Q1156.91 1283.94 1154.24 1285.4 L1154.24 1279.99 Q1157.46 1278.75 1160.48 1278.14 Q1163.5 1277.51 1166.37 1277.51 Q1174.1 1277.51 1177.92 1281.52 Q1181.74 1285.53 1181.74 1293.68 Z" fill="#000000" fill-rule="nonzero" fill-opacity="1" /><path clip-path="url(#clip670)" d="M1217.26 1283.78 L1217.26 1264.49 L1223.12 1264.49 L1223.12 1314.01 L1217.26 1314.01 L1217.26 1308.67 Q1215.42 1311.85 1212.58 1313.41 Q1209.78 1314.94 1205.84 1314.94 Q1199.37 1314.94 1195.3 1309.78 Q1191.26 1304.63 1191.26 1296.22 Q1191.26 1287.82 1195.3 1282.66 Q1199.37 1277.51 1205.84 1277.51 Q1209.78 1277.51 1212.58 1279.07 Q1215.42 1280.59 1217.26 1283.78 M1197.31 1296.22 Q1197.31 1302.68 1199.95 1306.38 Q1202.62 1310.04 1207.27 1310.04 Q1211.91 1310.04 1214.59 1306.38 Q1217.26 1302.68 1217.26 1296.22 Q1217.26 1289.76 1214.59 1286.1 Q1211.91 1282.41 1207.27 1282.41 Q1202.62 1282.41 1199.95 1286.1 Q1197.31 1289.76 1197.31 1296.22 Z" fill="#000000" fill-rule="nonzero" fill-opacity="1" /><path clip-path="url(#clip670)" d="M1248.99 1282.47 Q1244.28 1282.47 1241.55 1286.16 Q1238.81 1289.83 1238.81 1296.22 Q1238.81 1302.62 1241.52 1306.31 Q1244.25 1309.97 1248.99 1309.97 Q1253.67 1309.97 1256.41 1306.28 Q1259.15 1302.59 1259.15 1296.22 Q1259.15 1289.89 1256.41 1286.2 Q1253.67 1282.47 1248.99 1282.47 M1248.99 1277.51 Q1256.63 1277.51 1260.99 1282.47 Q1265.35 1287.44 1265.35 1296.22 Q1265.35 1304.98 1260.99 1309.97 Q1256.63 1314.94 1248.99 1314.94 Q1241.32 1314.94 1236.96 1309.97 Q1232.63 1304.98 1232.63 1296.22 Q1232.63 1287.44 1236.96 1282.47 Q1241.32 1277.51 1248.99 1277.51 Z" fill="#000000" fill-rule="nonzero" fill-opacity="1" /><polyline clip-path="url(#clip670)" style="stroke:#000000; stroke-linecap:round; stroke-linejoin:round; stroke-width:4; stroke-opacity:1; fill:none" points="274.664,1173.47 274.664,47.2441 "/>
<polyline clip-path="url(#clip670)" style="stroke:#000000; stroke-linecap:round; stroke-linejoin:round; stroke-width:4; stroke-opacity:1; fill:none" points="274.664,1141.6 293.562,1141.6 "/>
<polyline clip-path="url(#clip670)" style="stroke:#000000; stroke-linecap:round; stroke-linejoin:round; stroke-width:4; stroke-opacity:1; fill:none" points="274.664,916.483 293.562,916.483 "/>
<polyline clip-path="url(#clip670)" style="stroke:#000000; stroke-linecap:round; stroke-linejoin:round; stroke-width:4; stroke-opacity:1; fill:none" points="274.664,691.371 293.562,691.371 "/>
<polyline clip-path="url(#clip670)" style="stroke:#000000; stroke-linecap:round; stroke-linejoin:round; stroke-width:4; stroke-opacity:1; fill:none" points="274.664,466.258 293.562,466.258 "/>
<polyline clip-path="url(#clip670)" style="stroke:#000000; stroke-linecap:round; stroke-linejoin:round; stroke-width:4; stroke-opacity:1; fill:none" points="274.664,241.145 293.562,241.145 "/>
<path clip-path="url(#clip670)" d="M125.485 1127.4 Q121.873 1127.4 120.045 1130.96 Q118.239 1134.5 118.239 1141.63 Q118.239 1148.74 120.045 1152.3 Q121.873 1155.84 125.485 1155.84 Q129.119 1155.84 130.924 1152.3 Q132.753 1148.74 132.753 1141.63 Q132.753 1134.5 130.924 1130.96 Q129.119 1127.4 125.485 1127.4 M125.485 1123.69 Q131.295 1123.69 134.35 1128.3 Q137.429 1132.88 137.429 1141.63 Q137.429 1150.36 134.35 1154.96 Q131.295 1159.55 125.485 1159.55 Q119.674 1159.55 116.596 1154.96 Q113.54 1150.36 113.54 1141.63 Q113.54 1132.88 116.596 1128.3 Q119.674 1123.69 125.485 1123.69 Z" fill="#000000" fill-rule="nonzero" fill-opacity="1" /><path clip-path="url(#clip670)" d="M145.646 1153 L150.531 1153 L150.531 1158.88 L145.646 1158.88 L145.646 1153 Z" fill="#000000" fill-rule="nonzero" fill-opacity="1" /><path clip-path="url(#clip670)" d="M170.716 1127.4 Q167.105 1127.4 165.276 1130.96 Q163.47 1134.5 163.47 1141.63 Q163.47 1148.74 165.276 1152.3 Q167.105 1155.84 170.716 1155.84 Q174.35 1155.84 176.156 1152.3 Q177.984 1148.74 177.984 1141.63 Q177.984 1134.5 176.156 1130.96 Q174.35 1127.4 170.716 1127.4 M170.716 1123.69 Q176.526 1123.69 179.581 1128.3 Q182.66 1132.88 182.66 1141.63 Q182.66 1150.36 179.581 1154.96 Q176.526 1159.55 170.716 1159.55 Q164.906 1159.55 161.827 1154.96 Q158.771 1150.36 158.771 1141.63 Q158.771 1132.88 161.827 1128.3 Q164.906 1123.69 170.716 1123.69 Z" fill="#000000" fill-rule="nonzero" fill-opacity="1" /><path clip-path="url(#clip670)" d="M200.878 1127.4 Q197.267 1127.4 195.438 1130.96 Q193.632 1134.5 193.632 1141.63 Q193.632 1148.74 195.438 1152.3 Q197.267 1155.84 200.878 1155.84 Q204.512 1155.84 206.317 1152.3 Q208.146 1148.74 208.146 1141.63 Q208.146 1134.5 206.317 1130.96 Q204.512 1127.4 200.878 1127.4 M200.878 1123.69 Q206.688 1123.69 209.743 1128.3 Q212.822 1132.88 212.822 1141.63 Q212.822 1150.36 209.743 1154.96 Q206.688 1159.55 200.878 1159.55 Q195.067 1159.55 191.989 1154.96 Q188.933 1150.36 188.933 1141.63 Q188.933 1132.88 191.989 1128.3 Q195.067 1123.69 200.878 1123.69 Z" fill="#000000" fill-rule="nonzero" fill-opacity="1" /><path clip-path="url(#clip670)" d="M231.04 1127.4 Q227.428 1127.4 225.6 1130.96 Q223.794 1134.5 223.794 1141.63 Q223.794 1148.74 225.6 1152.3 Q227.428 1155.84 231.04 1155.84 Q234.674 1155.84 236.479 1152.3 Q238.308 1148.74 238.308 1141.63 Q238.308 1134.5 236.479 1130.96 Q234.674 1127.4 231.04 1127.4 M231.04 1123.69 Q236.85 1123.69 239.905 1128.3 Q242.984 1132.88 242.984 1141.63 Q242.984 1150.36 239.905 1154.96 Q236.85 1159.55 231.04 1159.55 Q225.229 1159.55 222.151 1154.96 Q219.095 1150.36 219.095 1141.63 Q219.095 1132.88 222.151 1128.3 Q225.229 1123.69 231.04 1123.69 Z" fill="#000000" fill-rule="nonzero" fill-opacity="1" /><path clip-path="url(#clip670)" d="M126.48 902.282 Q122.869 902.282 121.04 905.847 Q119.235 909.389 119.235 916.518 Q119.235 923.625 121.04 927.189 Q122.869 930.731 126.48 930.731 Q130.114 930.731 131.92 927.189 Q133.748 923.625 133.748 916.518 Q133.748 909.389 131.92 905.847 Q130.114 902.282 126.48 902.282 M126.48 898.578 Q132.29 898.578 135.346 903.185 Q138.424 907.768 138.424 916.518 Q138.424 925.245 135.346 929.851 Q132.29 934.435 126.48 934.435 Q120.67 934.435 117.591 929.851 Q114.536 925.245 114.536 916.518 Q114.536 907.768 117.591 903.185 Q120.67 898.578 126.48 898.578 Z" fill="#000000" fill-rule="nonzero" fill-opacity="1" /><path clip-path="url(#clip670)" d="M146.642 927.884 L151.526 927.884 L151.526 933.763 L146.642 933.763 L146.642 927.884 Z" fill="#000000" fill-rule="nonzero" fill-opacity="1" /><path clip-path="url(#clip670)" d="M171.711 902.282 Q168.1 902.282 166.271 905.847 Q164.466 909.389 164.466 916.518 Q164.466 923.625 166.271 927.189 Q168.1 930.731 171.711 930.731 Q175.345 930.731 177.151 927.189 Q178.98 923.625 178.98 916.518 Q178.98 909.389 177.151 905.847 Q175.345 902.282 171.711 902.282 M171.711 898.578 Q177.521 898.578 180.577 903.185 Q183.656 907.768 183.656 916.518 Q183.656 925.245 180.577 929.851 Q177.521 934.435 171.711 934.435 Q165.901 934.435 162.822 929.851 Q159.767 925.245 159.767 916.518 Q159.767 907.768 162.822 903.185 Q165.901 898.578 171.711 898.578 Z" fill="#000000" fill-rule="nonzero" fill-opacity="1" /><path clip-path="url(#clip670)" d="M201.873 902.282 Q198.262 902.282 196.433 905.847 Q194.628 909.389 194.628 916.518 Q194.628 923.625 196.433 927.189 Q198.262 930.731 201.873 930.731 Q205.507 930.731 207.313 927.189 Q209.141 923.625 209.141 916.518 Q209.141 909.389 207.313 905.847 Q205.507 902.282 201.873 902.282 M201.873 898.578 Q207.683 898.578 210.739 903.185 Q213.817 907.768 213.817 916.518 Q213.817 925.245 210.739 929.851 Q207.683 934.435 201.873 934.435 Q196.063 934.435 192.984 929.851 Q189.929 925.245 189.929 916.518 Q189.929 907.768 192.984 903.185 Q196.063 898.578 201.873 898.578 Z" fill="#000000" fill-rule="nonzero" fill-opacity="1" /><path clip-path="url(#clip670)" d="M222.081 899.203 L240.438 899.203 L240.438 903.139 L226.364 903.139 L226.364 911.611 Q227.382 911.264 228.401 911.102 Q229.419 910.916 230.438 910.916 Q236.225 910.916 239.604 914.088 Q242.984 917.259 242.984 922.676 Q242.984 928.254 239.512 931.356 Q236.04 934.435 229.72 934.435 Q227.544 934.435 225.276 934.064 Q223.03 933.694 220.623 932.953 L220.623 928.254 Q222.706 929.388 224.928 929.944 Q227.151 930.5 229.627 930.5 Q233.632 930.5 235.97 928.393 Q238.308 926.287 238.308 922.676 Q238.308 919.064 235.97 916.958 Q233.632 914.852 229.627 914.852 Q227.753 914.852 225.878 915.268 Q224.026 915.685 222.081 916.564 L222.081 899.203 Z" fill="#000000" fill-rule="nonzero" fill-opacity="1" /><path clip-path="url(#clip670)" d="M125.485 677.169 Q121.873 677.169 120.045 680.734 Q118.239 684.276 118.239 691.405 Q118.239 698.512 120.045 702.076 Q121.873 705.618 125.485 705.618 Q129.119 705.618 130.924 702.076 Q132.753 698.512 132.753 691.405 Q132.753 684.276 130.924 680.734 Q129.119 677.169 125.485 677.169 M125.485 673.466 Q131.295 673.466 134.35 678.072 Q137.429 682.655 137.429 691.405 Q137.429 700.132 134.35 704.739 Q131.295 709.322 125.485 709.322 Q119.674 709.322 116.596 704.739 Q113.54 700.132 113.54 691.405 Q113.54 682.655 116.596 678.072 Q119.674 673.466 125.485 673.466 Z" fill="#000000" fill-rule="nonzero" fill-opacity="1" /><path clip-path="url(#clip670)" d="M145.646 702.771 L150.531 702.771 L150.531 708.651 L145.646 708.651 L145.646 702.771 Z" fill="#000000" fill-rule="nonzero" fill-opacity="1" /><path clip-path="url(#clip670)" d="M170.716 677.169 Q167.105 677.169 165.276 680.734 Q163.47 684.276 163.47 691.405 Q163.47 698.512 165.276 702.076 Q167.105 705.618 170.716 705.618 Q174.35 705.618 176.156 702.076 Q177.984 698.512 177.984 691.405 Q177.984 684.276 176.156 680.734 Q174.35 677.169 170.716 677.169 M170.716 673.466 Q176.526 673.466 179.581 678.072 Q182.66 682.655 182.66 691.405 Q182.66 700.132 179.581 704.739 Q176.526 709.322 170.716 709.322 Q164.906 709.322 161.827 704.739 Q158.771 700.132 158.771 691.405 Q158.771 682.655 161.827 678.072 Q164.906 673.466 170.716 673.466 Z" fill="#000000" fill-rule="nonzero" fill-opacity="1" /><path clip-path="url(#clip670)" d="M191.688 704.715 L199.327 704.715 L199.327 678.35 L191.017 680.016 L191.017 675.757 L199.28 674.091 L203.956 674.091 L203.956 704.715 L211.595 704.715 L211.595 708.651 L191.688 708.651 L191.688 704.715 Z" fill="#000000" fill-rule="nonzero" fill-opacity="1" /><path clip-path="url(#clip670)" d="M231.04 677.169 Q227.428 677.169 225.6 680.734 Q223.794 684.276 223.794 691.405 Q223.794 698.512 225.6 702.076 Q227.428 705.618 231.04 705.618 Q234.674 705.618 236.479 702.076 Q238.308 698.512 238.308 691.405 Q238.308 684.276 236.479 680.734 Q234.674 677.169 231.04 677.169 M231.04 673.466 Q236.85 673.466 239.905 678.072 Q242.984 682.655 242.984 691.405 Q242.984 700.132 239.905 704.739 Q236.85 709.322 231.04 709.322 Q225.229 709.322 222.151 704.739 Q219.095 700.132 219.095 691.405 Q219.095 682.655 222.151 678.072 Q225.229 673.466 231.04 673.466 Z" fill="#000000" fill-rule="nonzero" fill-opacity="1" /><path clip-path="url(#clip670)" d="M126.48 452.056 Q122.869 452.056 121.04 455.621 Q119.235 459.163 119.235 466.292 Q119.235 473.399 121.04 476.964 Q122.869 480.505 126.48 480.505 Q130.114 480.505 131.92 476.964 Q133.748 473.399 133.748 466.292 Q133.748 459.163 131.92 455.621 Q130.114 452.056 126.48 452.056 M126.48 448.353 Q132.29 448.353 135.346 452.959 Q138.424 457.542 138.424 466.292 Q138.424 475.019 135.346 479.626 Q132.29 484.209 126.48 484.209 Q120.67 484.209 117.591 479.626 Q114.536 475.019 114.536 466.292 Q114.536 457.542 117.591 452.959 Q120.67 448.353 126.48 448.353 Z" fill="#000000" fill-rule="nonzero" fill-opacity="1" /><path clip-path="url(#clip670)" d="M146.642 477.658 L151.526 477.658 L151.526 483.538 L146.642 483.538 L146.642 477.658 Z" fill="#000000" fill-rule="nonzero" fill-opacity="1" /><path clip-path="url(#clip670)" d="M171.711 452.056 Q168.1 452.056 166.271 455.621 Q164.466 459.163 164.466 466.292 Q164.466 473.399 166.271 476.964 Q168.1 480.505 171.711 480.505 Q175.345 480.505 177.151 476.964 Q178.98 473.399 178.98 466.292 Q178.98 459.163 177.151 455.621 Q175.345 452.056 171.711 452.056 M171.711 448.353 Q177.521 448.353 180.577 452.959 Q183.656 457.542 183.656 466.292 Q183.656 475.019 180.577 479.626 Q177.521 484.209 171.711 484.209 Q165.901 484.209 162.822 479.626 Q159.767 475.019 159.767 466.292 Q159.767 457.542 162.822 452.959 Q165.901 448.353 171.711 448.353 Z" fill="#000000" fill-rule="nonzero" fill-opacity="1" /><path clip-path="url(#clip670)" d="M192.683 479.602 L200.322 479.602 L200.322 453.237 L192.012 454.903 L192.012 450.644 L200.276 448.978 L204.952 448.978 L204.952 479.602 L212.591 479.602 L212.591 483.538 L192.683 483.538 L192.683 479.602 Z" fill="#000000" fill-rule="nonzero" fill-opacity="1" /><path clip-path="url(#clip670)" d="M222.081 448.978 L240.438 448.978 L240.438 452.913 L226.364 452.913 L226.364 461.385 Q227.382 461.038 228.401 460.876 Q229.419 460.69 230.438 460.69 Q236.225 460.69 239.604 463.862 Q242.984 467.033 242.984 472.45 Q242.984 478.028 239.512 481.13 Q236.04 484.209 229.72 484.209 Q227.544 484.209 225.276 483.838 Q223.03 483.468 220.623 482.727 L220.623 478.028 Q222.706 479.163 224.928 479.718 Q227.151 480.274 229.627 480.274 Q233.632 480.274 235.97 478.167 Q238.308 476.061 238.308 472.45 Q238.308 468.839 235.97 466.732 Q233.632 464.626 229.627 464.626 Q227.753 464.626 225.878 465.042 Q224.026 465.459 222.081 466.339 L222.081 448.978 Z" fill="#000000" fill-rule="nonzero" fill-opacity="1" /><path clip-path="url(#clip670)" d="M125.485 226.943 Q121.873 226.943 120.045 230.508 Q118.239 234.05 118.239 241.179 Q118.239 248.286 120.045 251.851 Q121.873 255.392 125.485 255.392 Q129.119 255.392 130.924 251.851 Q132.753 248.286 132.753 241.179 Q132.753 234.05 130.924 230.508 Q129.119 226.943 125.485 226.943 M125.485 223.24 Q131.295 223.24 134.35 227.846 Q137.429 232.429 137.429 241.179 Q137.429 249.906 134.35 254.513 Q131.295 259.096 125.485 259.096 Q119.674 259.096 116.596 254.513 Q113.54 249.906 113.54 241.179 Q113.54 232.429 116.596 227.846 Q119.674 223.24 125.485 223.24 Z" fill="#000000" fill-rule="nonzero" fill-opacity="1" /><path clip-path="url(#clip670)" d="M145.646 252.545 L150.531 252.545 L150.531 258.425 L145.646 258.425 L145.646 252.545 Z" fill="#000000" fill-rule="nonzero" fill-opacity="1" /><path clip-path="url(#clip670)" d="M170.716 226.943 Q167.105 226.943 165.276 230.508 Q163.47 234.05 163.47 241.179 Q163.47 248.286 165.276 251.851 Q167.105 255.392 170.716 255.392 Q174.35 255.392 176.156 251.851 Q177.984 248.286 177.984 241.179 Q177.984 234.05 176.156 230.508 Q174.35 226.943 170.716 226.943 M170.716 223.24 Q176.526 223.24 179.581 227.846 Q182.66 232.429 182.66 241.179 Q182.66 249.906 179.581 254.513 Q176.526 259.096 170.716 259.096 Q164.906 259.096 161.827 254.513 Q158.771 249.906 158.771 241.179 Q158.771 232.429 161.827 227.846 Q164.906 223.24 170.716 223.24 Z" fill="#000000" fill-rule="nonzero" fill-opacity="1" /><path clip-path="url(#clip670)" d="M194.905 254.489 L211.225 254.489 L211.225 258.425 L189.28 258.425 L189.28 254.489 Q191.943 251.735 196.526 247.105 Q201.132 242.452 202.313 241.11 Q204.558 238.587 205.438 236.851 Q206.341 235.091 206.341 233.402 Q206.341 230.647 204.396 228.911 Q202.475 227.175 199.373 227.175 Q197.174 227.175 194.72 227.939 Q192.29 228.703 189.512 230.253 L189.512 225.531 Q192.336 224.397 194.79 223.818 Q197.243 223.24 199.28 223.24 Q204.651 223.24 207.845 225.925 Q211.04 228.61 211.04 233.101 Q211.04 235.23 210.229 237.152 Q209.442 239.05 207.336 241.642 Q206.757 242.314 203.655 245.531 Q200.554 248.726 194.905 254.489 Z" fill="#000000" fill-rule="nonzero" fill-opacity="1" /><path clip-path="url(#clip670)" d="M231.04 226.943 Q227.428 226.943 225.6 230.508 Q223.794 234.05 223.794 241.179 Q223.794 248.286 225.6 251.851 Q227.428 255.392 231.04 255.392 Q234.674 255.392 236.479 251.851 Q238.308 248.286 238.308 241.179 Q238.308 234.05 236.479 230.508 Q234.674 226.943 231.04 226.943 M231.04 223.24 Q236.85 223.24 239.905 227.846 Q242.984 232.429 242.984 241.179 Q242.984 249.906 239.905 254.513 Q236.85 259.096 231.04 259.096 Q225.229 259.096 222.151 254.513 Q219.095 249.906 219.095 241.179 Q219.095 232.429 222.151 227.846 Q225.229 223.24 231.04 223.24 Z" fill="#000000" fill-rule="nonzero" fill-opacity="1" /><path clip-path="url(#clip670)" d="M20.0842 686.603 L20.0842 656.557 L25.495 656.557 L25.495 680.173 L39.5632 680.173 L39.5632 657.543 L44.9741 657.543 L44.9741 680.173 L62.1933 680.173 L62.1933 655.984 L67.6042 655.984 L67.6042 686.603 L20.0842 686.603 Z" fill="#000000" fill-rule="nonzero" fill-opacity="1" /><path clip-path="url(#clip670)" d="M37.4307 625.014 Q36.8578 626.001 36.6032 627.179 Q36.3167 628.325 36.3167 629.725 Q36.3167 634.69 39.5632 637.364 Q42.7779 640.006 48.8253 640.006 L67.6042 640.006 L67.6042 645.894 L31.9562 645.894 L31.9562 640.006 L37.4944 640.006 Q34.2479 638.16 32.6883 635.2 Q31.0968 632.24 31.0968 628.006 Q31.0968 627.402 31.1923 626.67 Q31.256 625.937 31.4151 625.046 L37.4307 625.014 Z" fill="#000000" fill-rule="nonzero" fill-opacity="1" /><path clip-path="url(#clip670)" d="M37.4307 599.361 Q36.8578 600.347 36.6032 601.525 Q36.3167 602.671 36.3167 604.071 Q36.3167 609.037 39.5632 611.71 Q42.7779 614.352 48.8253 614.352 L67.6042 614.352 L67.6042 620.24 L31.9562 620.24 L31.9562 614.352 L37.4944 614.352 Q34.2479 612.506 32.6883 609.546 Q31.0968 606.586 31.0968 602.353 Q31.0968 601.748 31.1923 601.016 Q31.256 600.284 31.4151 599.392 L37.4307 599.361 Z" fill="#000000" fill-rule="nonzero" fill-opacity="1" /><path clip-path="url(#clip670)" d="M36.0621 580.836 Q36.0621 585.547 39.7542 588.284 Q43.4145 591.022 49.812 591.022 Q56.2095 591.022 59.9017 588.316 Q63.5619 585.579 63.5619 580.836 Q63.5619 576.158 59.8698 573.42 Q56.1777 570.683 49.812 570.683 Q43.4781 570.683 39.786 573.42 Q36.0621 576.158 36.0621 580.836 M31.0968 580.836 Q31.0968 573.198 36.0621 568.837 Q41.0273 564.477 49.812 564.477 Q58.5649 564.477 63.5619 568.837 Q68.5272 573.198 68.5272 580.836 Q68.5272 588.507 63.5619 592.868 Q58.5649 597.196 49.812 597.196 Q41.0273 597.196 36.0621 592.868 Q31.0968 588.507 31.0968 580.836 Z" fill="#000000" fill-rule="nonzero" fill-opacity="1" /><path clip-path="url(#clip670)" d="M37.4307 534.112 Q36.8578 535.099 36.6032 536.277 Q36.3167 537.422 36.3167 538.823 Q36.3167 543.788 39.5632 546.462 Q42.7779 549.103 48.8253 549.103 L67.6042 549.103 L67.6042 554.992 L31.9562 554.992 L31.9562 549.103 L37.4944 549.103 Q34.2479 547.257 32.6883 544.297 Q31.0968 541.337 31.0968 537.104 Q31.0968 536.499 31.1923 535.767 Q31.256 535.035 31.4151 534.144 L37.4307 534.112 Z" fill="#000000" fill-rule="nonzero" fill-opacity="1" /><circle clip-path="url(#clip672)" cx="325.327" cy="79.1184" r="14.4" fill="#009af9" fill-rule="evenodd" fill-opacity="1" stroke="#000000" stroke-opacity="1" stroke-width="2.688"/>
<circle clip-path="url(#clip672)" cx="536.423" cy="79.1184" r="14.4" fill="#009af9" fill-rule="evenodd" fill-opacity="1" stroke="#000000" stroke-opacity="1" stroke-width="2.688"/>
<circle clip-path="url(#clip672)" cx="747.518" cy="1126.93" r="14.4" fill="#009af9" fill-rule="evenodd" fill-opacity="1" stroke="#000000" stroke-opacity="1" stroke-width="2.688"/>
<circle clip-path="url(#clip672)" cx="958.614" cy="1126.93" r="14.4" fill="#009af9" fill-rule="evenodd" fill-opacity="1" stroke="#000000" stroke-opacity="1" stroke-width="2.688"/>
<circle clip-path="url(#clip672)" cx="1169.71" cy="1141.5" r="14.4" fill="#009af9" fill-rule="evenodd" fill-opacity="1" stroke="#000000" stroke-opacity="1" stroke-width="2.688"/>
<circle clip-path="url(#clip672)" cx="1380.81" cy="1141.5" r="14.4" fill="#009af9" fill-rule="evenodd" fill-opacity="1" stroke="#000000" stroke-opacity="1" stroke-width="2.688"/>
<circle clip-path="url(#clip672)" cx="1591.9" cy="1141.6" r="14.4" fill="#009af9" fill-rule="evenodd" fill-opacity="1" stroke="#000000" stroke-opacity="1" stroke-width="2.688"/>
<circle clip-path="url(#clip672)" cx="1803" cy="1141.6" r="14.4" fill="#009af9" fill-rule="evenodd" fill-opacity="1" stroke="#000000" stroke-opacity="1" stroke-width="2.688"/>
<circle clip-path="url(#clip672)" cx="2014.09" cy="1141.6" r="14.4" fill="#009af9" fill-rule="evenodd" fill-opacity="1" stroke="#000000" stroke-opacity="1" stroke-width="2.688"/>
</svg>
